HIERARCHY
ROOT Hips
{
	OFFSET -3.958830 18.904000 13.208200
	CHANNELS 6 Xposition Yposition Zposition Zrotation Yrotation Xrotation 
	JOINT LHipJoint
	{
		OFFSET 0.000000 0.000000 0.000000
		CHANNELS 3 Zrotation Yrotation Xrotation
		JOINT LeftUpLeg
		{
			OFFSET 1.800000 -1.400000 0.085000
			CHANNELS 3 Zrotation Yrotation Xrotation
			JOINT LeftLeg
			{
				OFFSET 2.215000 -6.000000 0.000000
				CHANNELS 3 Zrotation Yrotation Xrotation
				JOINT LeftFoot
				{
					OFFSET 2.500000 -6.900000 0.000000
					CHANNELS 3 Zrotation Yrotation Xrotation
					JOINT LeftToeBase
					{
						OFFSET 0.200000 -0.500000 1.950000
						CHANNELS 3 Zrotation Yrotation Xrotation
						End Site
						{
							OFFSET 0.000000 0.000000 0.000000
						}
					}
				}
			}
		}
	}
	JOINT RHipJoint
	{
		OFFSET 0.000000 0.000000 0.000000
		CHANNELS 3 Zrotation Yrotation Xrotation
		JOINT RightUpLeg
		{
			OFFSET -1.800000 -1.400000 0.085000
			CHANNELS 3 Zrotation Yrotation Xrotation
			JOINT RightLeg
			{
				OFFSET -2.215000 -6.000000 0.000000
				CHANNELS 3 Zrotation Yrotation Xrotation
				JOINT RightFoot
				{
					OFFSET -2.500000 -6.900000 0.000000
					CHANNELS 3 Zrotation Yrotation Xrotation
					JOINT RightToeBase
					{
						OFFSET -0.200000 -0.500000 1.950000
						CHANNELS 3 Zrotation Yrotation Xrotation
						End Site
						{
							OFFSET 0.000000 0.000000 0.000000
						}
					}
				}
			}
		}
	}
	JOINT LowerBack
	{
		OFFSET 0.000000 0.000000 0.000000
		CHANNELS 3 Zrotation Yrotation Xrotation
		JOINT Spine
		{
			OFFSET -0.087000 1.940000 -0.288900
			CHANNELS 3 Zrotation Yrotation Xrotation
			JOINT Spine1
			{
				OFFSET 0.000000 1.950000 0.060000
				CHANNELS 3 Zrotation Yrotation Xrotation
				JOINT Neck
				{
					OFFSET 0.000000 0.000000 0.000000
					CHANNELS 3 Zrotation Yrotation Xrotation
					JOINT Neck1
					{
						OFFSET 0.000000 1.600000 0.340000
						CHANNELS 3 Zrotation Yrotation Xrotation
						JOINT Head
						{
							OFFSET 0.000000 1.667000 -0.240000
							CHANNELS 3 Zrotation Yrotation Xrotation
							End Site
							{
								OFFSET 0.000000 0.000000 0.000000
							}
						}
					}
				}
				JOINT LeftShoulder
				{
					OFFSET 0.000000 0.000000 0.000000
					CHANNELS 3 Zrotation Yrotation Xrotation
					JOINT LeftArm
					{
						OFFSET 2.700000 1.550000 -0.730000
						CHANNELS 3 Zrotation Yrotation Xrotation
						JOINT LeftForeArm
						{
							OFFSET 5.450000 0.000000 0.000000
							CHANNELS 3 Zrotation Yrotation Xrotation
							JOINT LeftHand
							{
								OFFSET 3.450000 0.000000 0.000000
								CHANNELS 3 Zrotation Yrotation Xrotation
								JOINT LeftHandIndex1
								{
									OFFSET 0.750000 0.000000 0.000000
									CHANNELS 3 Zrotation Yrotation Xrotation
									End Site
									{
										OFFSET 0.000000 0.000000 0.000000
									}
								}
							}
						}
					}
				}
				JOINT RightShoulder
				{
					OFFSET 0.000000 0.000000 0.000000
					CHANNELS 3 Zrotation Yrotation Xrotation
					JOINT RightArm
					{
						OFFSET -2.700000 1.550000 -0.730000
						CHANNELS 3 Zrotation Yrotation Xrotation
						JOINT RightForeArm
						{
							OFFSET -5.450000 0.000000 0.000000
							CHANNELS 3 Zrotation Yrotation Xrotation
							JOINT RightHand
							{
								OFFSET -3.450000 0.000000 0.000000
								CHANNELS 3 Zrotation Yrotation Xrotation
								JOINT RightHandIndex1
								{
									OFFSET -0.750000 0.000000 0.000000
									CHANNELS 3 Zrotation Yrotation Xrotation
									End Site
									{
										OFFSET 0.000000 0.000000 0.000000
									}
								}
							}
						}
					}
				}
			}
		}
	}
}
MOTION
Frames: 4
Frame Time: 0.016667
-1.665770 18.334520 2.136580 -7.931869 7.903162 -10.683028 -14.913003 13.570294 2.643326 13.340886 0.220623 -19.807536 -4.405928 7.285818 23.780069 -1.227122 6.162853 2.756496 -0.783190 -1.278990 -0.988570 18.352483 -11.528271 2.887685 -1.137789 0.972080 -1.585641 5.254766 -7.436215 23.147400 -0.344604 -5.201144 2.899465 -0.440990 1.641340 0.161540 -4.195559 -1.117354 -7.552502 8.089883 -0.162067 27.489494 -14.244983 7.162997 11.262611 3.450943 -11.708156 -15.313512 -23.421170 1.172160 29.426831 13.768590 -12.450320 -13.787740 6.120027 -13.388768 5.377088 -3.798480 -7.549924 -9.571605 106.325149 -20.784532 -38.672390 -4.609177 2.119488 0.995580 0.557000 -0.605270 0.157340 -11.892400 25.207914 10.580726 -24.933681 -1.410302 -14.221491 -41.581529 -4.367347 -0.661184 2.482555 -0.801456 -1.082940 1.221970 1.190050 -0.007850 
-1.671990 18.327890 2.133370 -7.716284 7.679025 -10.729885 -14.904775 13.569111 2.643789 13.281877 0.280105 -19.711672 -4.559970 7.392394 23.901174 -1.204935 6.159972 2.737687 -0.765240 -1.261030 -0.952490 18.353689 -11.552874 2.880964 -1.465471 1.127476 -1.661996 5.485670 -7.536622 23.641089 -0.366358 -5.225347 2.877729 -0.447170 1.596190 0.156190 -4.202246 -1.074052 -7.565000 7.683434 0.003327 27.432957 -14.390475 7.329994 11.264595 3.408576 -11.747932 -15.471181 -24.060061 1.666588 30.599467 14.655300 -12.303180 -14.436440 6.203754 -13.330678 5.358416 -3.576445 -7.373821 -9.580236 106.159792 -21.448629 -39.184876 -4.570273 2.112919 1.015890 0.521140 -0.574190 0.140690 -11.885589 25.285924 10.590911 -25.679763 -0.952596 -13.480859 -38.404256 -2.325471 -0.987935 2.449246 -0.736553 -1.064670 1.203880 1.172180 -0.017380 
-1.680280 18.312790 2.123790 -7.750198 7.297689 -11.646138 -14.857764 13.511909 2.564231 13.749619 0.598514 -18.745737 -4.830405 7.617752 24.025035 -1.248742 6.306446 2.677455 -0.781480 -1.294030 -0.963430 18.398612 -11.641678 2.898103 -1.882149 1.252097 -0.858755 5.939673 -7.791583 24.164396 -0.395037 -5.408718 2.811179 -0.437440 1.614370 0.146440 -4.313556 -0.797770 -7.562694 7.862467 -0.063850 27.927638 -14.919088 7.595171 12.255816 3.388334 -11.666277 -15.624452 -24.005399 2.333944 31.571626 14.962190 -12.016750 -14.147890 6.854199 -13.452275 5.250404 -3.171422 -7.126216 -9.902823 105.738942 -22.003182 -39.929825 -4.592993 2.094257 1.050840 0.527890 -0.591560 0.125070 -12.479154 25.445383 10.681217 -26.431629 -0.724738 -12.435743 -33.363622 1.383299 -1.475128 2.334195 -0.650599 -1.109560 1.229430 1.209560 -0.039820 
-1.691250 18.293380 2.101750 -7.613682 7.143242 -12.890943 -14.838532 13.504732 2.473012 13.961308 0.875464 -17.759325 -4.709288 7.787185 24.617715 -1.229485 6.407089 2.617631 -0.723800 -1.243300 -0.915790 18.412550 -11.719856 2.905022 -2.500675 1.384134 0.211499 6.378539 -8.092671 25.124370 -0.461629 -5.657568 2.697618 -0.404170 1.565720 0.165170 -4.347360 -0.628737 -7.544083 7.339632 -0.140965 28.628042 -15.127937 7.807718 13.774507 3.504804 -11.445213 -15.721624 -23.493261 3.012255 32.343318 14.660920 -11.322910 -13.512820 7.738455 -13.442536 5.087143 -3.057578 -6.998150 -10.569393 105.285267 -21.978615 -40.177966 -4.582115 2.185597 1.047550 0.510570 -0.576750 0.122390 -13.551210 25.531769 10.639256 -26.699654 -0.631940 -11.084090 -28.305728 6.839100 -1.854438 2.188597 -0.706616 -1.081680 1.181370 1.182610 -0.056520 
